<?xml version="1.0" standalone="no"?>
<!DOCTYPE svg PUBLIC "-//W3C//DTD SVG 20010904//EN"
 "http://www.w3.org/TR/2001/REC-SVG-20010904/DTD/svg10.dtd">
<svg version="1.0" xmlns="http://www.w3.org/2000/svg"
 width="241.000000pt" height="241.000000pt" viewBox="0 0 241.000000 241.000000"
 preserveAspectRatio="xMidYMid meet">

<g transform="translate(0.000000,241.000000) scale(0.100000,-0.100000)"
fill="#000000" stroke="none">
<path d="M133 1344 c-35 -59 -63 -111 -63 -118 0 -6 28 -58 63 -116 l63 -105
126 -3 126 -3 60 103 c34 57 63 110 66 118 3 8 -23 62 -58 120 l-63 105 -129
3 -129 2 -62 -106z"/>
<path d="M1370 1236 l0 -186 35 0 35 0 0 70 0 70 64 0 c49 0 71 5 97 23 61 41
64 137 6 181 -23 17 -46 21 -132 24 l-105 4 0 -186z m185 99 c30 -29 31 -39 5
-65 -15 -15 -33 -20 -70 -20 l-50 0 0 55 0 55 45 0 c35 0 52 -6 70 -25z"/>
<path d="M1758 1403 c-45 -28 -59 -78 -36 -127 12 -28 73 -61 131 -72 61 -11
84 -46 51 -78 -37 -37 -108 -25 -129 22 -7 16 -18 22 -42 22 -28 0 -33 -4 -33
-24 0 -37 44 -82 94 -96 100 -28 196 25 196 108 0 60 -30 88 -119 116 -41 12
-79 29 -85 38 -16 26 10 48 55 48 30 0 42 -5 55 -25 12 -19 25 -25 50 -25 44
0 46 27 5 72 -26 30 -34 32 -97 35 -52 3 -76 -1 -96 -14z"/>
<path d="M2060 1235 l0 -185 140 0 140 0 0 30 0 30 -105 0 -105 0 0 50 0 50
95 0 95 0 0 30 0 30 -96 0 -95 0 3 43 3 42 98 3 97 3 0 29 0 30 -135 0 -135 0
0 -185z"/>
<path d="M1050 1230 l0 -180 130 0 130 0 0 30 0 30 -90 0 -90 0 0 150 0 150
-40 0 -40 0 0 -180z"/>
<path d="M1010 993 c-6 -10 -41 -70 -78 -133 l-67 -115 -142 -3 -141 -3 -67
116 -67 115 -154 0 c-130 0 -154 -2 -154 -15 0 -13 23 -15 144 -15 l145 0 63
-110 63 -110 166 0 166 0 74 128 74 127 663 3 c579 2 662 4 662 17 0 13 -83
15 -670 15 -627 0 -671 -1 -680 -17z"/>
</g>
</svg>
